<svg width="320" height="320" viewBox="0 0 320 320" fill="none" xmlns="http://www.w3.org/2000/svg">
<path d="M269.947 131.765L260.377 105.42L233.095 106.76C228.231 100.246 222.547 94.5463 216.256 89.6609L219.613 63.947L190.93 50.4465L174.619 71.6691C166.133 70.3295 157.409 70.1719 148.685 71.3276L134.78 50L103.85 62.3185L107.128 87.8224C100.519 92.6027 94.7032 98.1972 89.7332 104.422L63.0065 102.452L50.0529 131.213L71.0695 146.5C69.7212 154.852 69.5626 163.441 70.6729 172.056L50 187.395L61.2617 217.259C61.2617 217.259 79.5025 212.846 86.7989 212.82C91.9803 220.043 98.1399 226.347 105.013 231.626L102.449 256.473L131.581 268.477L146.385 249.408C155.189 250.8 164.283 250.905 173.35 249.592L187.652 270L215.806 259.31L214.009 233.149C221.305 227.844 227.65 221.566 232.937 214.553L256.676 218.651L270 189.47L250.067 173.789C251.31 165.568 251.416 157.137 250.305 148.706L269.947 131.765ZM188.974 230.444C150.192 245.888 106.15 227.187 90.6056 188.656C75.0613 150.124 93.8837 106.366 132.665 90.9217C171.447 75.4776 215.489 94.1786 231.033 132.71C246.578 171.242 227.755 215 188.974 230.444Z" fill="#587848"/>
<path d="M160.072 249.368C209.433 249.368 249.431 209.355 249.411 159.997C249.391 110.638 209.36 70.625 160 70.625C110.64 70.625 70.6412 110.638 70.6611 159.997C70.6811 209.355 110.712 249.368 160.072 249.368Z" fill="#587848"/>
<circle cx="160" cy="160" r="68.75" fill="#E3ECDF"/>
<path d="M139.222 173.75H132.653C128.775 173.75 125.625 170.869 125.625 167.323V145.802C125.625 142.256 128.775 139.375 132.653 139.375H139.222C143.1 139.375 146.25 142.256 146.25 145.802V167.323C146.25 170.869 143.1 173.75 139.222 173.75Z" fill="#587848"/>
<path d="M187.347 173.75H180.778C176.9 173.75 173.75 170.869 173.75 167.323V145.802C173.75 142.256 176.9 139.375 180.778 139.375H187.347C191.225 139.375 194.375 142.256 194.375 145.802V167.323C194.375 170.869 191.225 173.75 187.347 173.75Z" fill="#587848"/>
<path d="M14.2012 31.5641C18.2809 34.2473 22.3081 36.9568 26.4142 39.5611C32.9944 43.77 39.2062 48.4524 44.6547 54.0818C45.8128 55.2656 46.971 56.4493 48.1291 57.6331C48.1554 57.6068 48.1817 57.5805 48.1817 57.5542C48.208 57.5805 64.2376 73.6007 86.2158 95.5922L86.5843 95.6186C89.2164 92.5934 92.0327 89.7524 94.9807 87.0955C71.6602 63.8149 53.8934 46.0323 53.8408 46.006C53.8144 46.0323 53.7881 46.0586 53.7618 46.1112C53.7355 46.0849 53.6828 46.0323 53.6565 46.006C49.3925 41.8497 45.6286 37.2725 42.3384 32.327C38.5745 26.6449 35.0212 20.8314 31.3888 15.0704C31.0467 14.5443 30.6519 14.1497 30.1254 13.8078C27.7302 12.3346 25.3876 10.8352 23.0187 9.33578C18.2283 6.36323 13.4378 3.39069 8.64739 0.391834C8.14729 0.0761656 7.83144 0.128776 7.4103 0.549667C5.14669 2.83827 2.90939 5.12687 0.540487 7.28394C-0.196505 7.96788 -0.0912203 8.36247 0.329918 9.09903C4.6729 16.2805 9.01589 23.462 13.3326 30.6697C13.5958 31.0643 13.859 31.3274 14.2012 31.5641Z" fill="#425936"/>
<path d="M226.06 72.9955L224.402 85.6749C228.797 89.4366 232.851 93.5666 236.483 98.0386L245.722 97.5914C254.96 88.3844 260.988 82.3604 262.12 81.2292L261.778 80.9925C262.462 80.3085 262.883 79.8876 262.936 79.8613C267.2 76.2837 269.937 70.286 280.861 71.1278C291.784 71.9696 302.523 67.9448 312.104 57.3699C321.685 46.795 320 26.8027 319.158 24.6193C318.315 22.4359 316.815 22.9357 316.815 22.9357C316.815 22.9357 295.311 47.6105 291.942 49.7939C288.573 51.9772 287.915 49.7939 287.915 49.7939C287.915 49.7939 271.674 34.5629 269.332 32.7215C266.989 30.8801 268.647 28.4599 268.647 28.4599C268.647 28.4599 294.916 4.23235 295.416 3.44318C295.916 2.65401 295.311 1.60178 295.311 1.60178L293.179 1.04936C290.941 0.36541 281.203 -0.97618 275.149 1.15458C269.095 3.28535 261.593 5.86331 255.54 14.2548C249.486 22.6464 248.143 31.8271 248.591 38.0878C249.038 44.3486 249.828 48.2681 244.458 53.7923C243.195 55.0813 238.799 59.6059 232.772 65.7614C232.772 65.7614 232.509 65.9719 232.14 66.3402C232.219 66.4191 232.298 66.5243 232.377 66.6295C230.666 68.4183 228.508 70.5491 226.06 72.9955Z" fill="#425936"/>
<path d="M83.4257 220.571C81.6622 220.807 79.6092 221.149 77.4508 221.518C63.8691 235.118 55.0779 243.877 54.8936 244.088C54.8936 244.088 54.8673 244.114 54.841 244.141C51.3666 247.718 47.5237 249.323 42.8385 249.165C42.1805 249.139 41.4699 249.086 40.7855 248.981C39.3378 248.797 37.8902 248.691 36.4688 248.691C15.1224 248.507 -2.35482 267.974 1.06692 289.439C4.09385 308.458 19.8865 320.006 35.9424 319.927C37.0216 319.927 38.0744 319.875 39.1536 319.743C59.6314 317.612 73.1342 301.461 71.7655 280.732C70.8969 275.786 72.055 270.92 76.319 266.816C76.5296 266.632 83.9258 259.24 95.665 247.508L96.9811 234.67C92.0064 230.409 87.4529 225.7 83.4257 220.571ZM55.3674 280.258C53.8408 285.94 52.3668 291.412 50.9455 296.884C50.6033 298.173 49.761 298.672 48.6029 298.988C43.4702 300.33 38.3376 301.724 33.205 303.092C32.8892 303.171 32.5733 303.223 32.2575 303.25C32.0206 303.25 31.81 303.25 31.5994 303.223C31.0467 303.144 30.5203 302.855 29.9938 302.408C29.9412 302.355 29.8622 302.303 29.8096 302.25C29.3358 301.776 28.8357 301.303 28.3619 300.803C25.0191 297.41 21.6764 294.043 18.2546 290.728C17.2544 289.755 17.2018 288.781 17.465 287.677C17.4913 287.571 17.4913 287.466 17.5176 287.387C17.7019 286.756 17.8598 286.098 18.044 285.467C19.2811 280.995 20.4919 276.497 21.65 271.998C21.9922 270.63 22.6239 269.973 24.0453 269.631C28.5725 268.526 33.0471 267.316 37.548 266.053C38.1797 265.869 38.8377 265.711 39.4694 265.527C39.8116 265.422 40.1275 265.369 40.417 265.343C40.4696 265.343 40.496 265.343 40.5486 265.343C41.3909 265.29 42.0752 265.553 42.7859 266.29C46.1024 269.683 49.4978 273.024 52.8669 276.365C53.3407 276.839 53.8145 277.338 54.3146 277.812C55.1042 278.548 55.6833 279.338 55.3674 280.258Z" fill="#425936"/>
<path d="M315.947 280.784C310.498 275.392 305.05 269.999 299.601 264.606C297.627 262.634 280.65 246.666 260.935 227.042L235.93 222.701C231.745 227.752 227.06 232.356 221.954 236.433L223.454 258.53C241.721 276.996 256.935 292.333 257.329 292.727C258.093 293.49 258.83 294.253 259.593 294.99C259.646 295.068 259.751 295.095 259.804 295.174C260.33 295.7 260.856 296.226 261.383 296.752C267.963 303.276 274.491 309.826 281.15 316.271C286.598 321.558 295.337 321.111 300.549 315.64C305.523 310.431 310.656 305.354 315.762 300.277C318.552 297.515 319.816 294.2 320 290.412C319.789 286.677 318.631 283.415 315.947 280.784ZM291.284 306.354C288.336 307.511 285.967 305.012 285.967 305.012L239.931 259.898L246.88 253.4L289.52 295.91C289.52 295.91 293.995 300.093 294.074 301.198C294.153 302.276 294.232 305.17 291.284 306.354ZM305.181 293.253C302.233 294.411 299.864 291.912 299.864 291.912L254.276 247.35L260.988 240.642L303.391 282.81C303.391 282.81 307.866 286.993 307.945 288.097C308.05 289.202 308.129 292.07 305.181 293.253Z" fill="#425936"/>
</svg>
