<svg width="300" height="300" viewBox="0 0 300 300" fill="none" xmlns="http://www.w3.org/2000/svg">
<path d="M0 18C0 8.05888 8.05888 0 18 0H282C291.941 0 300 8.05888 300 18V282C300 291.941 291.941 300 282 300H18C8.05888 300 0 291.941 0 282V18Z" fill="#E3ECDF" fill-opacity="0.9"/>
<path d="M46.5703 92V26.3H60.0703V79.4H86.6203V92H46.5703Z" fill="#587848"/>
<path d="M121.685 92.9C117.305 92.9 113.495 92.09 110.255 90.47C107.015 88.79 104.495 86.48 102.695 83.54C100.955 80.54 100.085 77.06 100.085 73.1V45.2C100.085 41.24 100.955 37.79 102.695 34.85C104.495 31.85 107.015 29.54 110.255 27.92C113.495 26.24 117.305 25.4 121.685 25.4C126.125 25.4 129.935 26.24 133.115 27.92C136.355 29.54 138.845 31.85 140.585 34.85C142.385 37.79 143.285 41.24 143.285 45.2V73.1C143.285 77.06 142.385 80.54 140.585 83.54C138.845 86.48 136.355 88.79 133.115 90.47C129.935 92.09 126.125 92.9 121.685 92.9ZM121.685 81.2C124.385 81.2 126.395 80.51 127.715 79.13C129.095 77.69 129.785 75.68 129.785 73.1V45.2C129.785 42.56 129.125 40.55 127.805 39.17C126.485 37.79 124.445 37.1 121.685 37.1C118.925 37.1 116.885 37.79 115.565 39.17C114.245 40.55 113.585 42.56 113.585 45.2V73.1C113.585 75.68 114.245 77.69 115.565 79.13C116.945 80.51 118.985 81.2 121.685 81.2Z" fill="#587848"/>
<path d="M178.71 92.9C174.33 92.9 170.49 92.09 167.19 90.47C163.89 88.79 161.31 86.48 159.45 83.54C157.65 80.54 156.75 77.06 156.75 73.1V45.2C156.75 41.18 157.65 37.7 159.45 34.76C161.31 31.82 163.89 29.54 167.19 27.92C170.49 26.24 174.33 25.4 178.71 25.4C183.15 25.4 186.99 26.24 190.23 27.92C193.53 29.54 196.08 31.82 197.88 34.76C199.74 37.7 200.67 41.18 200.67 45.2H187.17C187.17 42.56 186.42 40.55 184.92 39.17C183.48 37.79 181.41 37.1 178.71 37.1C176.01 37.1 173.91 37.79 172.41 39.17C170.97 40.55 170.25 42.56 170.25 45.2V73.1C170.25 75.68 170.97 77.69 172.41 79.13C173.91 80.51 176.01 81.2 178.71 81.2C181.41 81.2 183.48 80.51 184.92 79.13C186.42 77.69 187.17 75.68 187.17 73.1V67.43H177.45V56H200.67V73.1C200.67 77.06 199.74 80.54 197.88 83.54C196.08 86.48 193.53 88.79 190.23 90.47C186.99 92.09 183.15 92.9 178.71 92.9Z" fill="#587848"/>
<path d="M235.015 92.9C230.635 92.9 226.825 92.09 223.585 90.47C220.345 88.79 217.825 86.48 216.025 83.54C214.285 80.54 213.415 77.06 213.415 73.1V45.2C213.415 41.24 214.285 37.79 216.025 34.85C217.825 31.85 220.345 29.54 223.585 27.92C226.825 26.24 230.635 25.4 235.015 25.4C239.455 25.4 243.265 26.24 246.445 27.92C249.685 29.54 252.175 31.85 253.915 34.85C255.715 37.79 256.615 41.24 256.615 45.2V73.1C256.615 77.06 255.715 80.54 253.915 83.54C252.175 86.48 249.685 88.79 246.445 90.47C243.265 92.09 239.455 92.9 235.015 92.9ZM235.015 81.2C237.715 81.2 239.725 80.51 241.045 79.13C242.425 77.69 243.115 75.68 243.115 73.1V45.2C243.115 42.56 242.455 40.55 241.135 39.17C239.815 37.79 237.775 37.1 235.015 37.1C232.255 37.1 230.215 37.79 228.895 39.17C227.575 40.55 226.915 42.56 226.915 45.2V73.1C226.915 75.68 227.575 77.69 228.895 79.13C230.275 80.51 232.315 81.2 235.015 81.2Z" fill="#587848"/>
<path d="M65.3803 182.9C61.0003 182.9 57.1603 182.09 53.8603 180.47C50.5603 178.79 47.9803 176.48 46.1203 173.54C44.3203 170.54 43.4203 167.06 43.4203 163.1V135.2C43.4203 131.18 44.3203 127.7 46.1203 124.76C47.9803 121.82 50.5603 119.54 53.8603 117.92C57.1603 116.24 61.0003 115.4 65.3803 115.4C69.8203 115.4 73.6603 116.24 76.9003 117.92C80.2003 119.54 82.7503 121.82 84.5503 124.76C86.4103 127.7 87.3403 131.18 87.3403 135.2H73.8403C73.8403 132.56 73.0903 130.55 71.5903 129.17C70.1503 127.79 68.0803 127.1 65.3803 127.1C62.6803 127.1 60.5803 127.79 59.0803 129.17C57.6403 130.55 56.9203 132.56 56.9203 135.2V163.1C56.9203 165.68 57.6403 167.69 59.0803 169.13C60.5803 170.51 62.6803 171.2 65.3803 171.2C68.0803 171.2 70.1503 170.51 71.5903 169.13C73.0903 167.69 73.8403 165.68 73.8403 163.1V157.43H64.1203V146H87.3403V163.1C87.3403 167.06 86.4103 170.54 84.5503 173.54C82.7503 176.48 80.2003 178.79 76.9003 180.47C73.6603 182.09 69.8203 182.9 65.3803 182.9Z" fill="#587848"/>
<path d="M121.685 182.9C117.305 182.9 113.495 182.09 110.255 180.47C107.015 178.79 104.495 176.48 102.695 173.54C100.955 170.54 100.085 167.06 100.085 163.1V135.2C100.085 131.24 100.955 127.79 102.695 124.85C104.495 121.85 107.015 119.54 110.255 117.92C113.495 116.24 117.305 115.4 121.685 115.4C126.125 115.4 129.935 116.24 133.115 117.92C136.355 119.54 138.845 121.85 140.585 124.85C142.385 127.79 143.285 131.24 143.285 135.2V163.1C143.285 167.06 142.385 170.54 140.585 173.54C138.845 176.48 136.355 178.79 133.115 180.47C129.935 182.09 126.125 182.9 121.685 182.9ZM121.685 171.2C124.385 171.2 126.395 170.51 127.715 169.13C129.095 167.69 129.785 165.68 129.785 163.1V135.2C129.785 132.56 129.125 130.55 127.805 129.17C126.485 127.79 124.445 127.1 121.685 127.1C118.925 127.1 116.885 127.79 115.565 129.17C114.245 130.55 113.585 132.56 113.585 135.2V163.1C113.585 165.68 114.245 167.69 115.565 169.13C116.945 170.51 118.985 171.2 121.685 171.2Z" fill="#587848"/>
<path d="M158.55 182V116.3H199.05V127.82H171.78V142.58H195.9V154.1H171.78V170.48H199.05V182H158.55Z" fill="#587848"/>
<path d="M235.015 182.9C230.395 182.9 226.375 182.12 222.955 180.56C219.535 179 216.895 176.81 215.035 173.99C213.175 171.17 212.245 167.84 212.245 164H225.745C225.745 166.22 226.585 167.99 228.265 169.31C230.005 170.57 232.345 171.2 235.285 171.2C238.105 171.2 240.295 170.57 241.855 169.31C243.475 168.05 244.285 166.31 244.285 164.09C244.285 162.17 243.685 160.52 242.485 159.14C241.285 157.76 239.605 156.83 237.445 156.35L230.785 154.82C225.205 153.5 220.855 151.07 217.735 147.53C214.675 143.93 213.145 139.55 213.145 134.39C213.145 130.55 214.015 127.22 215.755 124.4C217.555 121.52 220.075 119.3 223.315 117.74C226.555 116.18 230.395 115.4 234.835 115.4C241.555 115.4 246.865 117.08 250.765 120.44C254.725 123.74 256.705 128.21 256.705 133.85H243.205C243.205 131.75 242.455 130.1 240.955 128.9C239.515 127.7 237.415 127.1 234.655 127.1C232.075 127.1 230.095 127.7 228.715 128.9C227.335 130.04 226.645 131.69 226.645 133.85C226.645 135.77 227.185 137.42 228.265 138.8C229.405 140.12 230.995 141.02 233.035 141.5L240.055 143.12C245.875 144.44 250.285 146.84 253.285 150.32C256.285 153.74 257.785 158.12 257.785 163.46C257.785 167.3 256.825 170.69 254.905 173.63C253.045 176.57 250.405 178.85 246.985 180.47C243.625 182.09 239.635 182.9 235.015 182.9Z" fill="#587848"/>
<path d="M43.9603 272V206.3H57.4603V231.5H72.5803V206.3H86.0803V272H72.5803V244.1H57.4603V272H43.9603Z" fill="#587848"/>
<path d="M101.885 272V206.3H142.385V217.82H115.115V232.58H139.235V244.1H115.115V260.48H142.385V272H101.885Z" fill="#587848"/>
<path d="M157.2 272V206.3H178.35C183.03 206.3 187.08 207.11 190.5 208.73C193.92 210.35 196.56 212.66 198.42 215.66C200.34 218.66 201.3 222.2 201.3 226.28C201.3 230.54 200.25 234.35 198.15 237.71C196.11 241.07 193.32 243.5 189.78 245L202.2 272H187.53L176.91 247.16H170.61V272H157.2ZM170.61 235.46H178.35C181.35 235.46 183.66 234.71 185.28 233.21C186.96 231.71 187.8 229.61 187.8 226.91C187.8 224.09 186.96 221.9 185.28 220.34C183.66 218.78 181.35 218 178.35 218H170.61V235.46Z" fill="#587848"/>
<path d="M215.215 272V206.3H255.715V217.82H228.445V232.58H252.565V244.1H228.445V260.48H255.715V272H215.215Z" fill="#587848"/>
</svg>
